<svg xmlns="http://www.w3.org/2000/svg" viewBox="0 0 1500 300" width="1500" height="300">
  <defs>
    <linearGradient id="bgGrad" x1="0" y1="0" x2="1" y2="1">
      <stop offset="0%" stop-color="#003865"/>
      <stop offset="100%" stop-color="#002a4a"/>
    </linearGradient>
    <linearGradient id="switchBody" x1="0" y1="0" x2="0" y2="1">
      <stop offset="0%" stop-color="#1a2a3a"/>
      <stop offset="100%" stop-color="#0d1b28"/>
    </linearGradient>
    <linearGradient id="switchFace" x1="0" y1="0" x2="0" y2="1">
      <stop offset="0%" stop-color="#1e3347"/>
      <stop offset="100%" stop-color="#152538"/>
    </linearGradient>
  </defs>
  <rect width="1500" height="300" fill="url(#bgGrad)"/>
  <!-- Subtle grid -->
  <g opacity="0.04" stroke="#4D738A" stroke-width="1">
    <line x1="0" y1="75" x2="1500" y2="75"/>
    <line x1="0" y1="150" x2="1500" y2="150"/>
    <line x1="0" y1="225" x2="1500" y2="225"/>
  </g>
  <!-- Switch stack - Unit 1 (top) -->
  <g transform="translate(350, 40)">
    <rect x="0" y="0" width="800" height="60" rx="3" fill="url(#switchBody)" stroke="#2a4560" stroke-width="1"/>
    <rect x="10" y="8" width="620" height="44" rx="2" fill="url(#switchFace)"/>
    <!-- Ports row 1 -->
    <g fill="#0a1520" stroke="#1e3347" stroke-width="0.5">
      <rect x="20" y="14" width="14" height="14" rx="1"/>
      <rect x="40" y="14" width="14" height="14" rx="1"/>
      <rect x="60" y="14" width="14" height="14" rx="1"/>
      <rect x="80" y="14" width="14" height="14" rx="1"/>
      <rect x="100" y="14" width="14" height="14" rx="1"/>
      <rect x="120" y="14" width="14" height="14" rx="1"/>
      <rect x="140" y="14" width="14" height="14" rx="1"/>
      <rect x="160" y="14" width="14" height="14" rx="1"/>
      <rect x="180" y="14" width="14" height="14" rx="1"/>
      <rect x="200" y="14" width="14" height="14" rx="1"/>
      <rect x="220" y="14" width="14" height="14" rx="1"/>
      <rect x="240" y="14" width="14" height="14" rx="1"/>
      <rect x="270" y="14" width="14" height="14" rx="1"/>
      <rect x="290" y="14" width="14" height="14" rx="1"/>
      <rect x="310" y="14" width="14" height="14" rx="1"/>
      <rect x="330" y="14" width="14" height="14" rx="1"/>
      <rect x="350" y="14" width="14" height="14" rx="1"/>
      <rect x="370" y="14" width="14" height="14" rx="1"/>
      <rect x="390" y="14" width="14" height="14" rx="1"/>
      <rect x="410" y="14" width="14" height="14" rx="1"/>
      <rect x="430" y="14" width="14" height="14" rx="1"/>
      <rect x="450" y="14" width="14" height="14" rx="1"/>
      <rect x="470" y="14" width="14" height="14" rx="1"/>
      <rect x="490" y="14" width="14" height="14" rx="1"/>
    </g>
    <!-- Ports row 2 -->
    <g fill="#0a1520" stroke="#1e3347" stroke-width="0.5">
      <rect x="20" y="32" width="14" height="14" rx="1"/>
      <rect x="40" y="32" width="14" height="14" rx="1"/>
      <rect x="60" y="32" width="14" height="14" rx="1"/>
      <rect x="80" y="32" width="14" height="14" rx="1"/>
      <rect x="100" y="32" width="14" height="14" rx="1"/>
      <rect x="120" y="32" width="14" height="14" rx="1"/>
      <rect x="140" y="32" width="14" height="14" rx="1"/>
      <rect x="160" y="32" width="14" height="14" rx="1"/>
      <rect x="180" y="32" width="14" height="14" rx="1"/>
      <rect x="200" y="32" width="14" height="14" rx="1"/>
      <rect x="220" y="32" width="14" height="14" rx="1"/>
      <rect x="240" y="32" width="14" height="14" rx="1"/>
      <rect x="270" y="32" width="14" height="14" rx="1"/>
      <rect x="290" y="32" width="14" height="14" rx="1"/>
      <rect x="310" y="32" width="14" height="14" rx="1"/>
      <rect x="330" y="32" width="14" height="14" rx="1"/>
      <rect x="350" y="32" width="14" height="14" rx="1"/>
      <rect x="370" y="32" width="14" height="14" rx="1"/>
      <rect x="390" y="32" width="14" height="14" rx="1"/>
      <rect x="410" y="32" width="14" height="14" rx="1"/>
      <rect x="430" y="32" width="14" height="14" rx="1"/>
      <rect x="450" y="32" width="14" height="14" rx="1"/>
      <rect x="470" y="32" width="14" height="14" rx="1"/>
      <rect x="490" y="32" width="14" height="14" rx="1"/>
    </g>
    <!-- SFP+ slots -->
    <g fill="#0d1b28" stroke="#2a4560" stroke-width="0.5">
      <rect x="530" y="12" width="20" height="16" rx="1"/>
      <rect x="555" y="12" width="20" height="16" rx="1"/>
      <rect x="580" y="12" width="20" height="16" rx="1"/>
      <rect x="530" y="32" width="20" height="16" rx="1"/>
      <rect x="555" y="32" width="20" height="16" rx="1"/>
      <rect x="580" y="32" width="20" height="16" rx="1"/>
    </g>
    <!-- Status LEDs -->
    <g>
      <circle cx="650" cy="18" r="3" fill="#2ecc71" opacity="0.9"/>
      <circle cx="665" cy="18" r="3" fill="#2ecc71" opacity="0.7"/>
      <circle cx="680" cy="18" r="3" fill="#4D738A" opacity="0.5"/>
      <circle cx="695" cy="18" r="3" fill="#2ecc71" opacity="0.8"/>
    </g>
    <!-- Label -->
    <text x="650" y="48" font-family="'Helvetica Neue', Arial, sans-serif" font-size="9" fill="#4D738A" opacity="0.7">AT-x950-52XTQm</text>
    <!-- Power indicator -->
    <rect x="750" y="20" width="30" height="20" rx="2" fill="#0d1b28" stroke="#2a4560" stroke-width="0.5"/>
    <text x="765" y="34" text-anchor="middle" font-family="Arial, sans-serif" font-size="7" fill="#4D738A" opacity="0.5">PWR</text>
  </g>
  <!-- Switch stack - Unit 2 (middle) -->
  <g transform="translate(350, 110)">
    <rect x="0" y="0" width="800" height="60" rx="3" fill="url(#switchBody)" stroke="#2a4560" stroke-width="1"/>
    <rect x="10" y="8" width="620" height="44" rx="2" fill="url(#switchFace)"/>
    <g fill="#0a1520" stroke="#1e3347" stroke-width="0.5">
      <rect x="20" y="14" width="14" height="14" rx="1"/><rect x="40" y="14" width="14" height="14" rx="1"/>
      <rect x="60" y="14" width="14" height="14" rx="1"/><rect x="80" y="14" width="14" height="14" rx="1"/>
      <rect x="100" y="14" width="14" height="14" rx="1"/><rect x="120" y="14" width="14" height="14" rx="1"/>
      <rect x="140" y="14" width="14" height="14" rx="1"/><rect x="160" y="14" width="14" height="14" rx="1"/>
      <rect x="180" y="14" width="14" height="14" rx="1"/><rect x="200" y="14" width="14" height="14" rx="1"/>
      <rect x="220" y="14" width="14" height="14" rx="1"/><rect x="240" y="14" width="14" height="14" rx="1"/>
      <rect x="270" y="14" width="14" height="14" rx="1"/><rect x="290" y="14" width="14" height="14" rx="1"/>
      <rect x="310" y="14" width="14" height="14" rx="1"/><rect x="330" y="14" width="14" height="14" rx="1"/>
      <rect x="350" y="14" width="14" height="14" rx="1"/><rect x="370" y="14" width="14" height="14" rx="1"/>
      <rect x="390" y="14" width="14" height="14" rx="1"/><rect x="410" y="14" width="14" height="14" rx="1"/>
      <rect x="430" y="14" width="14" height="14" rx="1"/><rect x="450" y="14" width="14" height="14" rx="1"/>
      <rect x="470" y="14" width="14" height="14" rx="1"/><rect x="490" y="14" width="14" height="14" rx="1"/>
    </g>
    <g fill="#0a1520" stroke="#1e3347" stroke-width="0.5">
      <rect x="20" y="32" width="14" height="14" rx="1"/><rect x="40" y="32" width="14" height="14" rx="1"/>
      <rect x="60" y="32" width="14" height="14" rx="1"/><rect x="80" y="32" width="14" height="14" rx="1"/>
      <rect x="100" y="32" width="14" height="14" rx="1"/><rect x="120" y="32" width="14" height="14" rx="1"/>
      <rect x="140" y="32" width="14" height="14" rx="1"/><rect x="160" y="32" width="14" height="14" rx="1"/>
      <rect x="180" y="32" width="14" height="14" rx="1"/><rect x="200" y="32" width="14" height="14" rx="1"/>
      <rect x="220" y="32" width="14" height="14" rx="1"/><rect x="240" y="32" width="14" height="14" rx="1"/>
      <rect x="270" y="32" width="14" height="14" rx="1"/><rect x="290" y="32" width="14" height="14" rx="1"/>
      <rect x="310" y="32" width="14" height="14" rx="1"/><rect x="330" y="32" width="14" height="14" rx="1"/>
      <rect x="350" y="32" width="14" height="14" rx="1"/><rect x="370" y="32" width="14" height="14" rx="1"/>
      <rect x="390" y="32" width="14" height="14" rx="1"/><rect x="410" y="32" width="14" height="14" rx="1"/>
      <rect x="430" y="32" width="14" height="14" rx="1"/><rect x="450" y="32" width="14" height="14" rx="1"/>
      <rect x="470" y="32" width="14" height="14" rx="1"/><rect x="490" y="32" width="14" height="14" rx="1"/>
    </g>
    <g fill="#0d1b28" stroke="#2a4560" stroke-width="0.5">
      <rect x="530" y="12" width="20" height="16" rx="1"/><rect x="555" y="12" width="20" height="16" rx="1"/>
      <rect x="580" y="12" width="20" height="16" rx="1"/><rect x="530" y="32" width="20" height="16" rx="1"/>
      <rect x="555" y="32" width="20" height="16" rx="1"/><rect x="580" y="32" width="20" height="16" rx="1"/>
    </g>
    <g>
      <circle cx="650" cy="18" r="3" fill="#2ecc71" opacity="0.9"/>
      <circle cx="665" cy="18" r="3" fill="#2ecc71" opacity="0.8"/>
      <circle cx="680" cy="18" r="3" fill="#2ecc71" opacity="0.6"/>
      <circle cx="695" cy="18" r="3" fill="#2ecc71" opacity="0.9"/>
    </g>
    <text x="650" y="48" font-family="'Helvetica Neue', Arial, sans-serif" font-size="9" fill="#4D738A" opacity="0.7">AT-x950-52XTQm</text>
    <rect x="750" y="20" width="30" height="20" rx="2" fill="#0d1b28" stroke="#2a4560" stroke-width="0.5"/>
    <text x="765" y="34" text-anchor="middle" font-family="Arial, sans-serif" font-size="7" fill="#4D738A" opacity="0.5">PWR</text>
  </g>
  <!-- Switch stack - Unit 3 (bottom) -->
  <g transform="translate(350, 180)">
    <rect x="0" y="0" width="800" height="60" rx="3" fill="url(#switchBody)" stroke="#2a4560" stroke-width="1"/>
    <rect x="10" y="8" width="620" height="44" rx="2" fill="url(#switchFace)"/>
    <g fill="#0a1520" stroke="#1e3347" stroke-width="0.5">
      <rect x="20" y="14" width="14" height="14" rx="1"/><rect x="40" y="14" width="14" height="14" rx="1"/>
      <rect x="60" y="14" width="14" height="14" rx="1"/><rect x="80" y="14" width="14" height="14" rx="1"/>
      <rect x="100" y="14" width="14" height="14" rx="1"/><rect x="120" y="14" width="14" height="14" rx="1"/>
      <rect x="140" y="14" width="14" height="14" rx="1"/><rect x="160" y="14" width="14" height="14" rx="1"/>
      <rect x="180" y="14" width="14" height="14" rx="1"/><rect x="200" y="14" width="14" height="14" rx="1"/>
      <rect x="220" y="14" width="14" height="14" rx="1"/><rect x="240" y="14" width="14" height="14" rx="1"/>
      <rect x="270" y="14" width="14" height="14" rx="1"/><rect x="290" y="14" width="14" height="14" rx="1"/>
      <rect x="310" y="14" width="14" height="14" rx="1"/><rect x="330" y="14" width="14" height="14" rx="1"/>
      <rect x="350" y="14" width="14" height="14" rx="1"/><rect x="370" y="14" width="14" height="14" rx="1"/>
      <rect x="390" y="14" width="14" height="14" rx="1"/><rect x="410" y="14" width="14" height="14" rx="1"/>
      <rect x="430" y="14" width="14" height="14" rx="1"/><rect x="450" y="14" width="14" height="14" rx="1"/>
      <rect x="470" y="14" width="14" height="14" rx="1"/><rect x="490" y="14" width="14" height="14" rx="1"/>
    </g>
    <g fill="#0a1520" stroke="#1e3347" stroke-width="0.5">
      <rect x="20" y="32" width="14" height="14" rx="1"/><rect x="40" y="32" width="14" height="14" rx="1"/>
      <rect x="60" y="32" width="14" height="14" rx="1"/><rect x="80" y="32" width="14" height="14" rx="1"/>
      <rect x="100" y="32" width="14" height="14" rx="1"/><rect x="120" y="32" width="14" height="14" rx="1"/>
      <rect x="140" y="32" width="14" height="14" rx="1"/><rect x="160" y="32" width="14" height="14" rx="1"/>
      <rect x="180" y="32" width="14" height="14" rx="1"/><rect x="200" y="32" width="14" height="14" rx="1"/>
      <rect x="220" y="32" width="14" height="14" rx="1"/><rect x="240" y="32" width="14" height="14" rx="1"/>
      <rect x="270" y="32" width="14" height="14" rx="1"/><rect x="290" y="32" width="14" height="14" rx="1"/>
      <rect x="310" y="32" width="14" height="14" rx="1"/><rect x="330" y="32" width="14" height="14" rx="1"/>
      <rect x="350" y="32" width="14" height="14" rx="1"/><rect x="370" y="32" width="14" height="14" rx="1"/>
      <rect x="390" y="32" width="14" height="14" rx="1"/><rect x="410" y="32" width="14" height="14" rx="1"/>
      <rect x="430" y="32" width="14" height="14" rx="1"/><rect x="450" y="32" width="14" height="14" rx="1"/>
      <rect x="470" y="32" width="14" height="14" rx="1"/><rect x="490" y="32" width="14" height="14" rx="1"/>
    </g>
    <g fill="#0d1b28" stroke="#2a4560" stroke-width="0.5">
      <rect x="530" y="12" width="20" height="16" rx="1"/><rect x="555" y="12" width="20" height="16" rx="1"/>
      <rect x="580" y="12" width="20" height="16" rx="1"/><rect x="530" y="32" width="20" height="16" rx="1"/>
      <rect x="555" y="32" width="20" height="16" rx="1"/><rect x="580" y="32" width="20" height="16" rx="1"/>
    </g>
    <g>
      <circle cx="650" cy="18" r="3" fill="#2ecc71" opacity="0.8"/>
      <circle cx="665" cy="18" r="3" fill="#2ecc71" opacity="0.9"/>
      <circle cx="680" cy="18" r="3" fill="#2ecc71" opacity="0.7"/>
      <circle cx="695" cy="18" r="3" fill="#f39c12" opacity="0.8"/>
    </g>
    <text x="650" y="48" font-family="'Helvetica Neue', Arial, sans-serif" font-size="9" fill="#4D738A" opacity="0.7">AT-x950-52XTQm</text>
    <rect x="750" y="20" width="30" height="20" rx="2" fill="#0d1b28" stroke="#2a4560" stroke-width="0.5"/>
    <text x="765" y="34" text-anchor="middle" font-family="Arial, sans-serif" font-size="7" fill="#4D738A" opacity="0.5">PWR</text>
  </g>
  <!-- Stack connection indicators -->
  <g stroke="#4D738A" stroke-width="1.5" opacity="0.4">
    <line x1="340" y1="70" x2="340" y2="110"/>
    <line x1="340" y1="170" x2="340" y2="180"/>
    <line x1="1160" y1="70" x2="1160" y2="110"/>
    <line x1="1160" y1="170" x2="1160" y2="180"/>
  </g>
  <!-- Title -->
  <text x="750" y="275" text-anchor="middle" font-family="'Helvetica Neue', Helvetica, Arial, sans-serif" font-weight="300" font-size="22" fill="#ffffff" letter-spacing="6" opacity="0.9">ENTERPRISE SWITCHES</text>
</svg>