<svg xmlns="http://www.w3.org/2000/svg" viewBox="0 0 80 80" width="80" height="80">
  <!-- Gear outer -->
  <path d="M40,12 L44,12 L46,18 L52,16 L54,14 L58,18 L56,24 L62,26 L62,30 L56,32 L58,38 L62,40 L62,44 L56,46 L58,52 L54,56 L52,54 L46,56 L44,62 L40,62 L36,62 L34,56 L28,54 L26,56 L22,52 L24,46 L18,44 L18,40 L24,38 L22,32 L18,30 L18,26 L24,24 L22,18 L26,14 L28,16 L34,18 L36,12 Z" fill="none" stroke="#4D738A" stroke-width="2" stroke-linejoin="round"/>
  <!-- Gear center -->
  <circle cx="40" cy="37" r="10" fill="none" stroke="#4D738A" stroke-width="2"/>
  <!-- Circuit paths extending from gear -->
  <line x1="40" y1="62" x2="40" y2="72" stroke="#4D738A" stroke-width="2" stroke-linecap="round"/>
  <circle cx="40" cy="74" r="2.5" fill="#4D738A"/>
  <line x1="62" y1="37" x2="72" y2="37" stroke="#4D738A" stroke-width="2" stroke-linecap="round"/>
  <circle cx="74" cy="37" r="2.5" fill="#4D738A"/>
  <line x1="18" y1="37" x2="8" y2="37" stroke="#4D738A" stroke-width="2" stroke-linecap="round"/>
  <circle cx="6" cy="37" r="2.5" fill="#4D738A"/>
</svg>