<svg xmlns="http://www.w3.org/2000/svg" viewBox="0 0 64 64" width="64" height="64">
  <!-- Switch body -->
  <rect x="6" y="20" width="52" height="24" rx="3" fill="none" stroke="#4D738A" stroke-width="2.5"/>
  <!-- Ports -->
  <rect x="12" y="26" width="6" height="5" rx="1" fill="#4D738A" opacity="0.6"/>
  <rect x="21" y="26" width="6" height="5" rx="1" fill="#4D738A" opacity="0.6"/>
  <rect x="30" y="26" width="6" height="5" rx="1" fill="#4D738A" opacity="0.6"/>
  <rect x="39" y="26" width="6" height="5" rx="1" fill="#4D738A" opacity="0.6"/>
  <rect x="48" y="26" width="6" height="5" rx="1" fill="#4D738A" opacity="0.6"/>
  <rect x="12" y="34" width="6" height="5" rx="1" fill="#4D738A" opacity="0.4"/>
  <rect x="21" y="34" width="6" height="5" rx="1" fill="#4D738A" opacity="0.4"/>
  <rect x="30" y="34" width="6" height="5" rx="1" fill="#4D738A" opacity="0.4"/>
  <rect x="39" y="34" width="6" height="5" rx="1" fill="#4D738A" opacity="0.4"/>
  <rect x="48" y="34" width="6" height="5" rx="1" fill="#4D738A" opacity="0.4"/>
  <!-- Status LEDs -->
  <circle cx="15" cy="16" r="2" fill="#4D738A" opacity="0.7"/>
  <circle cx="22" cy="16" r="2" fill="#4D738A" opacity="0.5"/>
  <circle cx="29" cy="16" r="2" fill="#4D738A" opacity="0.7"/>
</svg>