<?xml version="1.0" encoding="utf-8"?>
<!-- Generator: Adobe Illustrator 21.1.0, SVG Export Plug-In . SVG Version: 6.00 Build 0)  -->
<svg version="1.1" id="Layer_1" xmlns="http://www.w3.org/2000/svg" xmlns:xlink="http://www.w3.org/1999/xlink" x="0px" y="0px"
	 viewBox="0 0 375 39" style="enable-background:new 0 0 375 39;" xml:space="preserve">
<style type="text/css">
	.st0{fill:#000;stroke:#;stroke-miterlimit:10;}
	.st1{fill:#df3127;stroke:#;stroke-miterlimit:10;}
</style>
<title>Artboard 1</title>
<polygon class="st0" points="49.3,2.8 60.8,37.5 43.9,37.5 41.7,29.4 30.5,37.5 1,37.5 "/>
<polygon class="st0" points="52.3,2.7 56.9,16.9 61,16.9 58.1,20.4 63.7,37.6 81.1,16.9 84.5,16.9 96.5,2.7 "/>
<path class="st0" d="M70.5,37.5l19.4-23.2c-1,4.9,1.2,9.5,5.3,13s9.9,5,14.7,2.7l-6.2,7.5L70.5,37.5z"/>
<path class="st1" d="M105.2,28.1c2.8,0,5.5-0.9,7.7-2.7H97.5C99.7,27.1,102.4,28.1,105.2,28.1z"/>
<path class="st1" d="M94.7,22.4h20.9c0.6-0.8,1-1.7,1.3-2.7H93.4C93.7,20.7,94.2,21.6,94.7,22.4z"/>
<path class="st1" d="M92.7,15.5c0,0.4,0,0.8,0.1,1.2h24.9c0-0.4,0.1-0.8,0.1-1.2c0-0.5,0-1-0.1-1.4H92.8
	C92.7,14.6,92.7,15,92.7,15.5z"/>
<path class="st1" d="M93.5,11.1h23.4c-0.4-1-0.8-1.9-1.4-2.7H94.9C94.3,9.3,93.8,10.2,93.5,11.1z"/>
<path class="st1" d="M97.8,5.5h14.9C108.2,2.2,102.2,2.2,97.8,5.5z"/>
<path class="st0" d="M157.8,36.6c-0.5-0.6-0.9-1.2-1.2-1.9L141.3,1.3h-0.1l-14.6,34.2c-0.2,0.4-0.5,0.8-0.9,1h5.4
	c-0.2-0.2-0.3-0.5-0.4-0.8c0.1-0.4,0.2-0.8,0.4-1.2l3.1-7.5h14.9l3.1,7.5c0.2,0.4,0.3,0.8,0.4,1.2c0,0.3-0.2,0.6-0.4,0.8L157.8,36.6
	z M135.3,23.8l6.1-14.7h0.1l6.2,14.7H135.3z"/>
<path class="st0" d="M158.3,36.6c0.8-0.4,0.9-1.5,0.9-3.4V4.2c0-0.9,0-1.7-0.8-2.2h4.2v32.5c-0.1,0.8,0.2,1.5,0.9,2L158.3,36.6z"/>
<path class="st0" d="M166.6,36.6c0.8-0.4,0.9-1.5,0.9-3.4V4.2c0-0.9,0-1.7-0.8-2.2h4.2v32.5c-0.1,0.8,0.2,1.5,0.9,2L166.6,36.6z"/>
<path class="st0" d="M175,36.6c0.8-0.4,0.9-1.5,0.9-3.4V15c0-0.9,0-1.7-0.8-2.2h4.2v21.8c-0.1,0.8,0.2,1.5,0.9,2L175,36.6z"/>
<path class="st0" d="M179.7,6.9c0,1.2-1,2.2-2.2,2.2c-1.2,0-2.2-1-2.2-2.2s1-2.2,2.2-2.2l0,0C178.7,4.8,179.7,5.7,179.7,6.9"/>
<path class="st0" d="M339.3,36.6c0.8-0.4,0.9-1.5,0.9-3.4V15c0-0.9,0-1.7-0.8-2.2h4.2v21.8c-0.1,0.8,0.2,1.5,0.9,2L339.3,36.6z"/>
<path class="st0" d="M344.1,6.9c0,1.2-1,2.2-2.2,2.2c-1.2,0-2.2-1-2.2-2.2s1-2.2,2.2-2.2l0,0C343.1,4.8,344.1,5.7,344.1,6.9"/>
<path class="st0" d="M231.6,2.1h-4.3c0.5,0.3,0.9,1,0.9,1.6v11.8l-0.2,0.1c-1.8-2.8-4.6-3.5-8-3.5c-7.1,0-13.3,5.1-13.3,12.4
	c-0.1,7,5.6,12.8,12.6,12.8c0.1,0,0.3,0,0.4,0c4.3,0,6.2-2,9.7-3.9c0.8-0.6,1.8-1.1,2.8-1.4C231.6,31.6,231.6,2.1,231.6,2.1z
	 M228.2,30.4c-1.8,1-4.2,3.7-8.5,3.7c-5.2,0-9.4-4.1-9.6-9.2c0-5.2,3.7-9.5,9.2-9.5c4.7,0,6.4,1.4,8.9,3.9L228.2,30.4z"/>
<path class="st0" d="M258.2,34.9c0,0.6,0.2,1.2,0.6,1.7h-4.9c0.4-0.5,0.6-1.1,0.6-1.7V5.4H249c-0.9-0.1-1.7,0.3-2.2,1V2.1h19.1v4.3
	c-0.5-0.7-1.4-1.1-2.2-1h-5.4V34.9z"/>
<path class="st0" d="M288.4,36.7c0.8-0.4,0.9-1.5,0.9-3.4V4.4c0-0.9,0-1.7-0.8-2.2h4.2v32.5c-0.1,0.8,0.2,1.5,0.9,2L288.4,36.7z"/>
<path class="st0" d="M333.7,17c-1.2-1-2.7-1.6-4.3-1.7c-2.1,0-3.8,0.7-3.8,3.1c0,5.5,10.4,2.8,10.4,11.6c0,4-3.2,7.3-7.3,7.3
	c-0.1,0-0.2,0-0.2,0c-1.4,0-2.7-0.2-4.1-0.5c-0.7-0.2-1.4-0.4-2.2-0.5c-0.4,0.1-0.7,0.3-0.9,0.6l0,0v-5.8c1.6,1.8,3.8,2.8,6.2,2.9
	c2.5,0,5-0.7,5-3.6c0-6.8-10.4-3.5-10.4-12c0-3.9,3-6.4,6.8-6.4c1.4,0,2.9,0.5,3.7,0.5c0.4,0,0.8-0.1,1.1-0.4L333.7,17z"/>
<path class="st0" d="M360.5,17c-1.2-1-2.7-1.6-4.3-1.7c-2.1,0-3.8,0.7-3.8,3.1c0,5.4,10.4,2.7,10.4,11.6c0,4-3.2,7.3-7.3,7.3
	c-0.1,0-0.2,0-0.3,0c-1.4,0-2.7-0.2-4.1-0.5c-0.7-0.2-1.4-0.4-2.2-0.5c-0.4,0.1-0.7,0.3-0.9,0.6H348v-5.8c1.6,1.8,3.8,2.8,6.2,2.9
	c2.5,0,5-0.7,5-3.6c0-6.8-10.4-3.5-10.4-12c0-3.9,3-6.4,6.8-6.4c1.4,0,2.9,0.5,3.7,0.5c0.4,0,0.8-0.1,1.1-0.4L360.5,17z"/>
<path class="st0" d="M206.6,16.7l-18.1,15.2c3.8,3.4,9,3.2,13.1-0.2c1.1-0.9,2.1-1.9,2.9-3v4.8c-0.3,0.2-0.6,0.5-0.8,0.7
	c-5.6,4.7-13.8,4.8-18.6-0.9s-3.7-13.5,2-18.3c6-5.1,14.2-3.6,18,0.9C205.5,16.4,206,16.6,206.6,16.7 M189.2,17.6
	c-3.6,2.7-4.9,7.6-3,11.8l15-12.5C197.5,14.1,193,14.5,189.2,17.6"/>
<path class="st0" d="M286.2,16.7l-18.1,15.2c3.8,3.4,9,3.2,13.1-0.2c1.1-0.9,2.1-1.9,3-3v4.8l-0.8,0.7c-5.6,4.7-13.8,4.8-18.6-0.9
	s-3.7-13.5,2-18.3c6-5.1,14.2-3.6,18,0.9C285.2,16.4,285.6,16.6,286.2,16.7 M268.9,17.6c-3.7,2.7-4.9,7.6-3,11.8l15-12.5
	C277.1,14.1,272.6,14.5,268.9,17.6"/>
<path class="st0" d="M320.5,16.7l-18.1,15.2c3.8,3.4,9,3.2,13.1-0.2c1.1-0.9,2.1-1.9,3-3v4.8l-0.8,0.7c-5.6,4.7-13.8,4.8-18.6-0.9
	s-3.7-13.5,2-18.3c6-5.1,14.2-3.6,18,0.9C319.5,16.4,320,16.6,320.5,16.7 M303.3,17.6c-3.6,2.7-4.9,7.6-3,11.8l15-12.5
	C311.5,14.1,307,14.5,303.3,17.6"/>
<path class="st0" d="M361.3,3.6v-1h4.8v1h-1.8v4.9h-1.1V3.6H361.3z M368.7,2.6l1.4,4.2l1.4-4.2h1.6v5.9h-1V3.8l-1.5,4.7h-0.9
	l-1.6-4.7v4.7h-1V2.6L368.7,2.6z"/>
</svg>
